<?xml version="1.0" standalone="no"?>
<!DOCTYPE svg PUBLIC "-//W3C//DTD SVG 20010904//EN"
 "http://www.w3.org/TR/2001/REC-SVG-20010904/DTD/svg10.dtd">
<svg version="1.0" xmlns="http://www.w3.org/2000/svg"
 width="2500.000000pt" height="2500.000000pt" viewBox="0 0 2500.000000 2500.000000"
 preserveAspectRatio="xMidYMid meet">
<metadata>
Created by potrace 1.14, written by Peter Selinger 2001-2017
</metadata>
<g transform="translate(0.000000,2500.000000) scale(0.100000,-0.100000)"
fill="#000000" stroke="none">
<path d="M3705 24989 c-777 -57 -1544 -352 -2150 -824 -911 -711 -1462 -1741
-1544 -2887 -15 -201 -15 -17354 -1 -17553 65 -896 410 -1716 1001 -2380 700
-787 1658 -1259 2711 -1334 201 -15 17354 -15 17553 -1 896 65 1716 410 2380
1001 787 700 1259 1658 1334 2711 15 201 15 17354 1 17553 -65 893 -406 1705
-996 2375 -690 784 -1663 1264 -2716 1339 -177 13 -17401 13 -17573 0z m10758
-3132 c262 -65 454 -174 642 -362 136 -136 222 -262 315 -462 l69 -148 1358
-5 c1354 -6 1358 -6 1454 -28 292 -67 536 -195 736 -386 227 -217 375 -482
446 -800 l22 -101 0 -3685 0 -3685 -22 -101 c-67 -300 -193 -539 -398 -753
-233 -243 -564 -409 -900 -450 -128 -16 -11222 -16 -11350 0 -342 42 -673 209
-910 461 -197 209 -323 449 -388 742 l-22 101 0 3685 0 3685 22 101 c136 612
568 1046 1182 1186 l96 22 1358 3 1358 4 21 47 c57 133 132 277 186 357 199
298 533 523 852 575 41 6 82 13 90 15 8 2 848 2 1865 1 1706 -2 1855 -3 1918
-19z m-4138 -12878 c156 -20 272 -75 327 -154 62 -90 70 -216 34 -530 -9 -77
-34 -291 -56 -475 -176 -1491 -215 -1984 -227 -2870 -7 -575 5 -922 53 -1480
17 -198 -127 -449 -322 -560 -86 -50 -160 -63 -309 -57 -337 15 -485 120 -554
392 -38 151 -46 248 -45 540 1 285 14 471 68 995 13 124 23 226 22 227 -2 3
-690 -119 -1000 -178 -294 -56 -628 -124 -804 -164 l-72 -17 -43 -66 c-48 -74
-175 -286 -350 -582 -238 -404 -371 -583 -588 -795 -287 -279 -405 -334 -661
-306 -228 25 -428 118 -518 243 -62 86 -64 77 85 381 193 395 306 571 597 934
l139 172 -15 63 c-8 35 -29 96 -45 137 -17 41 -31 90 -31 110 1 140 223 327
626 527 l191 95 148 217 c446 651 797 1121 1464 1957 678 851 715 893 893
1016 204 140 414 217 658 243 50 5 242 -4 335 -15z m7927 -34 c650 -86 1119
-530 1249 -1182 30 -153 38 -432 14 -523 -28 -109 -80 -196 -171 -287 -127
-126 -258 -183 -466 -203 -203 -20 -372 27 -448 123 -35 44 -70 131 -86 214
-11 59 -14 132 -12 303 l3 226 -32 64 c-52 105 -180 224 -313 291 -58 29 -76
33 -167 37 -293 12 -651 -127 -1037 -402 -471 -337 -852 -802 -1147 -1401
-237 -483 -343 -934 -344 -1465 0 -229 1 -250 23 -320 44 -140 106 -244 207
-345 224 -227 503 -337 860 -339 127 -1 163 2 235 22 307 84 662 284 866 487
89 88 107 113 156 210 165 323 374 609 508 695 81 52 154 64 306 51 199 -17
351 -65 438 -138 111 -93 211 -279 231 -430 6 -44 2 -65 -20 -122 -138 -361
-486 -783 -875 -1061 -307 -220 -667 -398 -998 -494 -492 -143 -1065 -174
-1582 -86 -464 79 -826 267 -1066 553 -345 410 -480 879 -445 1537 37 669 172
1206 441 1755 322 655 777 1188 1345 1574 458 311 900 501 1400 600 321 64
695 87 927 56z m-5618 -4985 c114 -29 190 -73 276 -160 119 -120 170 -237 170
-395 0 -170 -53 -288 -190 -425 -111 -111 -211 -175 -345 -219 -289 -96 -584
-43 -764 138 -139 140 -176 288 -124 496 48 191 226 391 448 502 163 82 364
106 529 63z"/>
<path d="M10729 20866 c-75 -27 -144 -95 -192 -191 -13 -27 -94 -205 -180
-395 -85 -190 -160 -357 -167 -372 l-13 -28 -1607 0 c-1028 0 -1627 -4 -1661
-10 -133 -25 -273 -128 -337 -248 -67 -125 -62 175 -62 -3742 0 -3912 -4
-3618 61 -3740 62 -116 190 -214 319 -244 58 -14 674 -16 5620 -16 4946 0
5562 2 5620 16 129 30 257 128 319 244 65 122 61 -172 61 3740 0 3917 5 3617
-62 3742 -64 120 -204 223 -337 248 -34 6 -633 10 -1661 10 l-1606 0 -18 38
c-10 20 -86 188 -168 372 -83 184 -163 360 -178 390 -37 73 -91 134 -148 168
l-47 27 -1760 2 c-1421 2 -1767 0 -1796 -11z m-2219 -2486 l0 -500 -500 0
-500 0 0 500 0 500 500 0 500 0 0 -500z m4390 475 c544 -75 1042 -287 1472
-627 128 -101 380 -351 482 -479 178 -224 376 -574 471 -832 77 -210 138 -465
167 -697 17 -137 17 -543 0 -680 -106 -847 -545 -1592 -1232 -2091 -408 -297
-894 -486 -1410 -551 -60 -7 -207 -13 -340 -13 -248 0 -362 10 -572 51 -905
175 -1694 777 -2111 1611 -199 396 -298 789 -314 1238 -35 1008 449 1968 1290
2558 432 303 943 485 1492 531 103 8 494 -4 605 -19z"/>
<path d="M12270 17865 c-454 -57 -855 -251 -1176 -570 -527 -525 -716 -1315
-487 -2030 216 -673 773 -1181 1463 -1335 1013 -227 2032 355 2343 1338 284
897 -83 1864 -888 2337 -370 218 -828 313 -1255 260z"/>
<path d="M9458 7553 c-231 -294 -542 -735 -1047 -1481 -139 -206 -250 -376
-248 -379 3 -2 74 7 159 21 84 15 351 56 592 91 242 36 442 68 444 70 3 3 13
121 23 262 40 550 95 1084 143 1373 14 80 23 146 21 148 -1 2 -41 -45 -87
-105z"/>
</g>
</svg>
